{"title":"Teen Wolf Season 4 EP7 Weaponized 1080P WEB-DL","uid":10707027,"size":1552126274,"categoryP":"video","categoryS":"hd___tv_shows","magnet":"?xt=urn:btih:34b896d9d59eba1e6d93b1478a9a44d6899e8bb2&amp;dn=Teen+Wolf+Season+4+EP7+Weaponized+1080P+WEB-DL&amp;tr=udp%3A%2F%2Ftracker.openbittorrent.com%3A80&amp;tr=udp%3A%2F%2Fopen.demonii.com%3A1337&amp;tr=udp%3A%2F%2Ftracker.coppersurfer.tk%3A6969&amp;tr=udp%3A%2F%2Fexodus.desync.com%3A6969","seeders":1,"leechers":0,"uploader":"jmanwf","files":2,"time":1407306485,"description":"A mysterious outbreak overtakes the school.\n\n\n\nFormat : MPEG-4\nFormat profile : Base Media / Version 2\nCodec ID : mp42\nFile size : 1.45 GiB\nDuration : 42mn 46s\nOverall bit rate mode : Variable\nOverall bit rate : 4 837 Kbps\nMovie name : Weaponized\nAlbum : Teen Wolf, Season 4\nPart/Position : 1\nPart/Total : 1\nTrack name/Position : 7\nTrack name/Total : 9\nPerformer : Teen Wolf\nGenre : Sci-Fi &amp; Fantasy\n\nVideo\nID : 2\nFormat : AVC\nFormat/Info : Advanced Video Codec\nFormat profile : &lt;a class=&quot;__cf_email__&quot; href=&quot;/cdn-cgi/l/email-protection&quot; data-cfemail=&quot;7e361719163e324a504e&quot;&gt;[email&amp;#160;protected]&lt;/a&gt;&lt;script cf-hash='f9e31' type=&quot;text/javascript&quot;&gt;\n/* &lt;![CDATA[ */!function(){try{var t=&quot;currentScript&quot;in document?document.currentScript:function(){for(var t=document.getElementsByTagName(&quot;script&quot;),e=t.length;e--;)if(t[e].getAttribute(&quot;cf-hash&quot;))return t[e]}();if(t&amp;&amp;t.previousSibling){var e,r,n,i,c=t.previousSibling,a=c.getAttribute(&quot;data-cfemail&quot;);if(a){for(e=&quot;&quot;,r=parseInt(a.substr(0,2),16),n=2;a.length-n;n+=2)i=parseInt(a.substr(n,2),16)^r,e+=String.fromCharCode(i);e=document.createTextNode(e),c.parentNode.replaceChild(e,c)}}}catch(u){}}();/* ]]&gt; */&lt;/script&gt;\nFormat settings, CABAC : Yes\nFormat settings, ReFrames : 4 frames\nCodec ID : avc1\nCodec ID/Info : Advanced Video Coding\nDuration : 42mn 46s\nBit rate : 4 707 Kbps\nWidth : 1 916 pixels\nHeight : 1 076 pixels\nDisplay aspect ratio : 16:9\nFrame rate : 23.976 fps\nColor space : YUV\nChroma subsampling : 4:2:0\nBit depth : 8 bits\nScan type : Progressive\nBits/(Pixel*Frame) : 0.095\nStream size : 1.41 GiB (97%)\nLanguage : English\nEncoded date : UTC 2014-08-05 13:25:33\nTagged date : UTC 2014-08-05 13:26:29\nColor primaries : BT.709\nTransfer characteristics : BT.709\nMatrix coefficients : BT.709\n\nAudio\nID : 1\nFormat : AAC\nFormat/Info : Advanced Audio Codec\nFormat profile : LC\nCodec ID : 40\nDuration : 42mn 46s\nBit rate mode : Variable\nBit rate : 126 Kbps\nMaximum bit rate : 203 Kbps\nChannel(s) : 2 channels\nChannel positions : Front: L R\nSampling rate : 48.0 KHz\nCompression mode : Lossy\nStream size : 38.6 MiB (3%)\nLanguage : English\nEncoded date : UTC 2014-08-05 13:23:31\nTagged date : UTC 2014-08-05 13:25:32 \n\n\n\n &lt;a href=&quot;\nhttp://www.imdb.com/title/tt1567432/&quot; rel=&quot;nofollow&quot; target=&quot;_NEW&quot;&gt;\nhttp://www.imdb.com/title/tt1567432/&lt;/a&gt;","torrent":{"xt":"urn:btih:34b896d9d59eba1e6d93b1478a9a44d6899e8bb2","amp;dn":"Teen+Wolf+Season+4+EP7+Weaponized+1080P+WEB-DL","amp;tr":["udp%3A%2F%2Ftracker.openbittorrent.com%3A80","udp%3A%2F%2Fopen.demonii.com%3A1337","udp%3A%2F%2Ftracker.coppersurfer.tk%3A6969","udp%3A%2F%2Fexodus.desync.com%3A6969"],"infoHash":"34b896d9d59eba1e6d93b1478a9a44d6899e8bb2","infoHashBuffer":{"type":"Buffer","data":[52,184,150,217,213,158,186,30,109,147,177,71,138,154,68,214,137,158,139,178]},"announce":[],"urlList":[]}}